<svg width="110" height="36" viewBox="0 0 130 36" fill="none" xmlns="http://www.w3.org/2000/svg"><ellipse cx="78.828" cy="21.357" rx="9.596" ry="8.392" fill="#FF914D"></ellipse><path d="M46.217 30.24c-.5 0-.861-.11-1.086-.331-.2-.22-.3-.552-.3-.994V6.571c0-.466.1-.81.3-1.03.225-.221.587-.332 1.086-.332h10.82c2.596 0 4.556.614 5.879 1.84 1.348 1.228 2.022 2.884 2.022 4.97 0 1.178-.3 2.233-.899 3.166-.599.932-1.435 1.62-2.509 2.061 2.771.86 4.156 2.773 4.156 5.743 0 1.374-.324 2.613-.973 3.717-.624 1.08-1.573 1.94-2.846 2.577-1.273.638-2.845.957-4.717.957H46.217Zm10.147-14.577c1.223 0 2.159-.306 2.808-.92.674-.613 1.01-1.472 1.01-2.577 0-1.202-.312-2.061-.936-2.576-.599-.54-1.572-.81-2.92-.81h-6.702v6.883h6.74Zm.561 11.007c1.373 0 2.384-.344 3.033-1.031.649-.712.973-1.62.973-2.724 0-1.276-.399-2.233-1.198-2.871-.774-.663-1.86-.994-3.257-.994h-6.852v7.62h7.301ZM78.764 30.792c-3.245 0-5.754-.834-7.526-2.503-1.747-1.693-2.62-3.988-2.62-6.883 0-2.896.873-5.178 2.62-6.847 1.772-1.693 4.28-2.54 7.526-2.54 3.245 0 5.753.847 7.526 2.54 1.772 1.669 2.658 3.951 2.658 6.847 0 2.896-.886 5.19-2.658 6.883-1.773 1.669-4.281 2.503-7.526 2.503Zm0-3.46c1.772 0 3.12-.503 4.044-1.509.923-1.006 1.385-2.479 1.385-4.417 0-1.914-.462-3.362-1.385-4.344-.924-1.006-2.272-1.51-4.044-1.51-1.747 0-3.095.504-4.044 1.51-.923.982-1.385 2.43-1.385 4.344 0 1.914.462 3.386 1.385 4.417.949 1.006 2.297 1.51 4.044 1.51ZM94.006 30.24c-.499 0-.861-.11-1.086-.331-.2-.22-.3-.552-.3-.994V6.571c0-.466.1-.81.3-1.03.225-.221.587-.332 1.086-.332h1.985c.499 0 .86.11 1.085.332.225.22.337.564.337 1.03v22.344c0 .442-.112.773-.337.994-.2.22-.561.331-1.085.331h-1.985Zm12.131 0c-.274 0-.474-.024-.599-.073-.125-.05-.262-.16-.412-.332l-6.59-7.325a3.13 3.13 0 0 1-.486-.663c-.1-.22-.15-.49-.15-.81 0-.318.05-.576.15-.772.1-.221.262-.454.487-.7l6.365-6.552c.149-.172.287-.282.412-.331.149-.074.386-.11.711-.11h3.482c.175 0 .3.048.374.147.1.098.15.22.15.368a.703.703 0 0 1-.224.515l-7.451 7.436 7.713 8.171c.149.148.224.307.224.48a.63.63 0 0 1-.149.404.564.564 0 0 1-.412.147h-3.595ZM118.423 30.792c-2.447 0-4.394-.724-5.841-2.171-1.448-1.473-2.172-3.534-2.172-6.185 0-2.06.462-3.877 1.385-5.448.924-1.595 2.234-2.822 3.932-3.68 1.722-.86 3.719-1.289 5.99-1.289 3.171 0 5.854.736 8.05 2.209v15.018c0 .368-.087.626-.262.773-.149.148-.424.221-.823.221h-2.06c-.274 0-.486-.049-.636-.147-.125-.123-.212-.307-.262-.552l-.3-1.436a6.904 6.904 0 0 1-2.883 2.062c-1.123.417-2.496.625-4.118.625Zm1.797-3.35c1.323 0 2.483-.38 3.482-1.14 1.023-.761 1.535-1.767 1.535-3.019v-7.178a5.69 5.69 0 0 0-1.61-.552c-.524-.123-1.173-.184-1.947-.184-1.972 0-3.557.613-4.755 1.84s-1.797 2.92-1.797 5.08c0 1.767.412 3.068 1.235 3.902.849.834 2.134 1.252 3.857 1.252Z" fill="#02323D"></path><path d="M0 6.023C0 2.697 2.743 0 6.126 0h24.365c3.384 0 6.127 2.697 6.127 6.023v23.954c0 3.327-2.743 6.023-6.127 6.023H6.126C2.743 36 0 33.304 0 29.977V6.023Z" fill="#FF914D"></path><path fill-rule="evenodd" clip-rule="evenodd" d="M19.023 28.64c3.713 0 6.724-2.96 6.724-6.61 0-3.652-3.01-6.611-6.724-6.611-3.714 0-6.725 2.96-6.725 6.61 0 3.652 3.01 6.611 6.725 6.611Zm0 2.91c5.348 0 9.683-4.263 9.683-9.52 0-5.258-4.335-9.52-9.683-9.52s-9.684 4.262-9.684 9.52c0 5.257 4.336 9.52 9.684 9.52Z" fill="#fff"></path><path fill-rule="evenodd" clip-rule="evenodd" d="M15.598 16.852c2.537 0 4.594-2.022 4.594-4.517 0-2.494-2.056-4.517-4.594-4.517-2.537 0-4.594 2.023-4.594 4.517 0 2.495 2.057 4.517 4.594 4.517Zm0 1.636c3.457 0 6.259-2.754 6.259-6.153 0-3.398-2.802-6.153-6.259-6.153-3.457 0-6.259 2.755-6.259 6.153 0 3.399 2.803 6.153 6.26 6.153Z" fill="#fff"></path><path d="m9.34 12.335 2.39 3.89-.62 5.688H9.34v-9.578Z" fill="#fff"></path></svg>